# xmcd CD database file
#
# Track frame offsets:
#	150
#	21616
#	44357
#	68798
#	93788
#	113324
#	129874
#	147556
#	166586
#	185176
#	206286
#	227752
#
# Disc length: 3338 seconds
#
# Revision: 0
# Processed by: cddbd v1.5.1PL0 Copyright (c) Steve Scherf et al.
# Submitted via: CDex 1.51
#
DISCID=9c0d080c
DTITLE=Jerry L. - After Tha Party
DYEAR=2004
DGENRE=Blues
TTITLE0=1 - After Tha Party (Club Mix)
TTITLE1=2 - Do The Nasty (Club Mix)
TTITLE2=3 - Slow Dance
TTITLE3=4 - No Matter How High I Get
TTITLE4=5 - Games People Play
TTITLE5=6 - Eat Up Your Love
TTITLE6=7 - Your Lies
TTITLE7=8 - Work It
TTITLE8=9 - Just Do It
TTITLE9=10 - He's Using You
TTITLE10=11 - After Tha Party
TTITLE11=12 - Do The Nasty
EXTD=YEAR: 2004
EXTT0=
EXTT1=
EXTT2=
EXTT3=
EXTT4=
EXTT5=
EXTT6=
EXTT7=
EXTT8=
EXTT9=
EXTT10=
EXTT11=
PLAYORDER=
